<svg xmlns="http://www.w3.org/2000/svg" viewBox="0 0 200 200">
<rect width="200" height="200" fill="#050508"/>
<path d="M20,200 L32,118 Q100,107 168,118 L180,200Z" fill="#0a0a12"/>
<ellipse cx="100" cy="78" rx="38" ry="41" fill="#0a0a12"/>
<ellipse cx="100" cy="52" rx="40" ry="20" fill="#080808"/>
<rect x="62" y="54" width="76" height="66" rx="6" fill="#080808"/>
<ellipse cx="84" cy="74" rx="11" ry="6" fill="#141418"/>
<ellipse cx="116" cy="74" rx="11" ry="6" fill="#141418"/>
<ellipse cx="84" cy="74" rx="8" ry="4.5" fill="#c8a000"/>
<ellipse cx="116" cy="74" rx="8" ry="4.5" fill="#c8a000"/>
<circle cx="84" cy="74" r="3.5" fill="#3a2800"/>
<circle cx="116" cy="74" r="3.5" fill="#3a2800"/>
<circle cx="82" cy="72" r="1.5" fill="white" opacity="0.4"/>
<circle cx="114" cy="72" r="1.5" fill="white" opacity="0.4"/>
<rect x="154" y="92" width="9" height="72" rx="4" fill="#1a1814" transform="rotate(-12,158,128)"/>
<rect x="146" y="122" width="24" height="6" rx="2" fill="#c8a000" transform="rotate(-12,158,125)"/>
</svg>